<mxfile host="app.diagrams.net" modified="2022-04-11T17:17:34.915Z" agent="5.0 (Windows NT 10.0; Win64; x64) AppleWebKit/537.36 (KHTML, like Gecko) Chrome/100.0.4896.75 Safari/537.36 Edg/100.0.1185.36" etag="F1Ur-QgJjzVzn9Jj_Fz-" version="17.4.2" type="github">
  <diagram id="R2lEEEUBdFMjLlhIrx00" name="Page-1">
    <mxGraphModel dx="2503" dy="1505" grid="1" gridSize="10" guides="1" tooltips="1" connect="1" arrows="1" fold="1" page="1" pageScale="1" pageWidth="827" pageHeight="1169" math="0" shadow="0" extFonts="Permanent Marker^https://fonts.googleapis.com/css?family=Permanent+Marker">
      <root>
        <mxCell id="0" />
        <mxCell id="1" parent="0" />
        <mxCell id="tYkyg7E3x5yhrrcK7RUM-3" value="Entity" style="whiteSpace=wrap;html=1;align=center;rounded=1;shadow=1;sketch=1;" vertex="1" parent="1">
          <mxGeometry x="30" y="10" width="100" height="40" as="geometry" />
        </mxCell>
        <mxCell id="tYkyg7E3x5yhrrcK7RUM-4" value="Attribute" style="ellipse;whiteSpace=wrap;html=1;align=center;fontStyle=4;rounded=1;shadow=1;sketch=1;" vertex="1" parent="1">
          <mxGeometry x="190" y="10" width="100" height="40" as="geometry" />
        </mxCell>
        <mxCell id="tYkyg7E3x5yhrrcK7RUM-5" value="" style="edgeStyle=entityRelationEdgeStyle;fontSize=12;html=1;endArrow=ERmandOne;startArrow=ERmandOne;rounded=0;" edge="1" parent="1">
          <mxGeometry width="100" height="100" relative="1" as="geometry">
            <mxPoint x="350" y="10" as="sourcePoint" />
            <mxPoint x="470" y="10" as="targetPoint" />
          </mxGeometry>
        </mxCell>
        <mxCell id="tYkyg7E3x5yhrrcK7RUM-6" value="" style="edgeStyle=entityRelationEdgeStyle;fontSize=12;html=1;endArrow=ERoneToMany;rounded=0;labelBackgroundColor=none;labelBorderColor=none;" edge="1" parent="1">
          <mxGeometry width="100" height="100" relative="1" as="geometry">
            <mxPoint x="350" y="30" as="sourcePoint" />
            <mxPoint x="470" y="30" as="targetPoint" />
          </mxGeometry>
        </mxCell>
        <mxCell id="tYkyg7E3x5yhrrcK7RUM-7" value="" style="endArrow=classic;html=1;rounded=0;labelBackgroundColor=none;labelBorderColor=none;" edge="1" parent="1">
          <mxGeometry width="50" height="50" relative="1" as="geometry">
            <mxPoint x="350" y="60" as="sourcePoint" />
            <mxPoint x="480" y="60" as="targetPoint" />
          </mxGeometry>
        </mxCell>
        <mxCell id="tYkyg7E3x5yhrrcK7RUM-8" value="M" style="text;html=1;strokeColor=none;fillColor=none;align=center;verticalAlign=middle;whiteSpace=wrap;rounded=0;shadow=1;sketch=1;" vertex="1" parent="1">
          <mxGeometry x="560" y="20" width="60" height="30" as="geometry" />
        </mxCell>
        <mxCell id="tYkyg7E3x5yhrrcK7RUM-9" value="1" style="text;html=1;strokeColor=none;fillColor=none;align=center;verticalAlign=middle;whiteSpace=wrap;rounded=0;shadow=1;sketch=1;" vertex="1" parent="1">
          <mxGeometry x="620" y="20" width="60" height="30" as="geometry" />
        </mxCell>
        <mxCell id="tYkyg7E3x5yhrrcK7RUM-51" value="" style="edgeStyle=orthogonalEdgeStyle;rounded=0;orthogonalLoop=1;jettySize=auto;html=1;labelBackgroundColor=none;labelBorderColor=none;fontColor=default;" edge="1" parent="1" source="tYkyg7E3x5yhrrcK7RUM-10" target="tYkyg7E3x5yhrrcK7RUM-14">
          <mxGeometry relative="1" as="geometry" />
        </mxCell>
        <mxCell id="tYkyg7E3x5yhrrcK7RUM-10" value="System Requirements" style="whiteSpace=wrap;html=1;align=center;rounded=1;shadow=1;sketch=1;fontColor=default;labelBackgroundColor=none;labelBorderColor=none;fontStyle=0" vertex="1" parent="1">
          <mxGeometry x="180" y="430" width="100" height="40" as="geometry" />
        </mxCell>
        <mxCell id="tYkyg7E3x5yhrrcK7RUM-11" value="&lt;pre style=&quot;font-family: &amp;quot;jetbrains mono&amp;quot;, monospace;&quot;&gt;&lt;span style=&quot;&quot;&gt;id&lt;/span&gt;&lt;/pre&gt;" style="ellipse;whiteSpace=wrap;html=1;align=center;fontStyle=0;rounded=1;shadow=1;sketch=1;fontColor=default;labelBackgroundColor=none;labelBorderColor=none;" vertex="1" parent="1">
          <mxGeometry x="90" y="290" width="100" height="40" as="geometry" />
        </mxCell>
        <mxCell id="tYkyg7E3x5yhrrcK7RUM-12" value="&lt;pre style=&quot;font-family: &amp;quot;jetbrains mono&amp;quot;, monospace;&quot;&gt;&lt;span style=&quot;&quot;&gt;minimal_memory&lt;/span&gt;&lt;/pre&gt;" style="ellipse;whiteSpace=wrap;html=1;align=center;fontStyle=0;rounded=1;shadow=1;sketch=1;fontColor=default;labelBackgroundColor=none;labelBorderColor=none;" vertex="1" parent="1">
          <mxGeometry x="35" y="330" width="120" height="40" as="geometry" />
        </mxCell>
        <mxCell id="tYkyg7E3x5yhrrcK7RUM-13" value="&lt;pre style=&quot;font-family: &amp;quot;jetbrains mono&amp;quot;, monospace;&quot;&gt;&lt;span style=&quot;&quot;&gt;recommended_memory&lt;/span&gt;&lt;/pre&gt;" style="ellipse;whiteSpace=wrap;html=1;align=center;fontStyle=0;rounded=1;shadow=1;sketch=1;fontColor=default;labelBackgroundColor=none;labelBorderColor=none;" vertex="1" parent="1">
          <mxGeometry x="25" y="380" width="130" height="50" as="geometry" />
        </mxCell>
        <mxCell id="tYkyg7E3x5yhrrcK7RUM-14" value="&lt;pre style=&quot;font-family: &amp;quot;jetbrains mono&amp;quot;, monospace;&quot;&gt;&lt;span style=&quot;&quot;&gt;minimal_storage&lt;/span&gt;&lt;/pre&gt;" style="ellipse;whiteSpace=wrap;html=1;align=center;fontStyle=0;rounded=1;shadow=1;sketch=1;fontColor=default;labelBackgroundColor=none;labelBorderColor=none;" vertex="1" parent="1">
          <mxGeometry x="10" y="440" width="120" height="40" as="geometry" />
        </mxCell>
        <mxCell id="tYkyg7E3x5yhrrcK7RUM-15" value="&lt;pre style=&quot;font-family: &amp;quot;jetbrains mono&amp;quot;, monospace;&quot;&gt;&lt;span style=&quot;&quot;&gt;recommended_storage&lt;/span&gt;&lt;/pre&gt;" style="ellipse;whiteSpace=wrap;html=1;align=center;fontStyle=0;rounded=1;shadow=1;sketch=1;fontColor=default;labelBackgroundColor=none;labelBorderColor=none;" vertex="1" parent="1">
          <mxGeometry x="40" y="490" width="140" height="50" as="geometry" />
        </mxCell>
        <mxCell id="tYkyg7E3x5yhrrcK7RUM-16" value="&lt;pre style=&quot;font-family: &amp;quot;jetbrains mono&amp;quot;, monospace;&quot;&gt;&lt;span style=&quot;&quot;&gt;game_profile_id&lt;/span&gt;&lt;/pre&gt;" style="ellipse;whiteSpace=wrap;html=1;align=center;fontStyle=0;rounded=1;shadow=1;sketch=1;fontColor=default;labelBackgroundColor=none;labelBorderColor=none;" vertex="1" parent="1">
          <mxGeometry x="90" y="540" width="100" height="40" as="geometry" />
        </mxCell>
        <mxCell id="tYkyg7E3x5yhrrcK7RUM-18" value="&lt;pre style=&quot;font-family: &amp;quot;jetbrains mono&amp;quot;, monospace;&quot;&gt;&lt;pre style=&quot;font-family: &amp;quot;jetbrains mono&amp;quot; , monospace&quot;&gt;&lt;span style=&quot;&quot;&gt;minimal_processor_id&lt;/span&gt;&lt;/pre&gt;&lt;/pre&gt;" style="ellipse;whiteSpace=wrap;html=1;align=center;fontStyle=0;rounded=1;shadow=1;sketch=1;fontColor=default;labelBackgroundColor=none;labelBorderColor=none;" vertex="1" parent="1">
          <mxGeometry x="250" y="290" width="150" height="50" as="geometry" />
        </mxCell>
        <mxCell id="tYkyg7E3x5yhrrcK7RUM-19" value="&lt;pre style=&quot;font-family: &amp;quot;jetbrains mono&amp;quot;, monospace;&quot;&gt;&lt;pre style=&quot;font-family: &amp;quot;jetbrains mono&amp;quot; , monospace&quot;&gt;&lt;span style=&quot;&quot;&gt;recommended_processor_id&lt;/span&gt;&lt;/pre&gt;&lt;/pre&gt;" style="ellipse;whiteSpace=wrap;html=1;align=center;fontStyle=0;rounded=1;shadow=1;sketch=1;fontColor=default;labelBackgroundColor=none;labelBorderColor=none;" vertex="1" parent="1">
          <mxGeometry x="280" y="340" width="180" height="50" as="geometry" />
        </mxCell>
        <mxCell id="tYkyg7E3x5yhrrcK7RUM-20" value="&lt;pre style=&quot;font-family: &amp;quot;jetbrains mono&amp;quot;, monospace;&quot;&gt;&lt;pre style=&quot;font-family: &amp;quot;jetbrains mono&amp;quot; , monospace&quot;&gt;&lt;span style=&quot;&quot;&gt;minimal_graphic_card_id&lt;/span&gt;&lt;/pre&gt;&lt;/pre&gt;" style="ellipse;whiteSpace=wrap;html=1;align=center;fontStyle=0;rounded=1;shadow=1;sketch=1;fontColor=default;labelBackgroundColor=none;labelBorderColor=none;" vertex="1" parent="1">
          <mxGeometry x="330" y="390" width="170" height="60" as="geometry" />
        </mxCell>
        <mxCell id="tYkyg7E3x5yhrrcK7RUM-22" value="&lt;pre style=&quot;font-family: &amp;quot;jetbrains mono&amp;quot;, monospace;&quot;&gt;&lt;pre style=&quot;font-family: &amp;quot;jetbrains mono&amp;quot; , monospace&quot;&gt;&lt;span style=&quot;&quot;&gt;recommended_graphic_card_id&lt;/span&gt;&lt;/pre&gt;&lt;/pre&gt;" style="ellipse;whiteSpace=wrap;html=1;align=center;fontStyle=0;rounded=1;shadow=1;sketch=1;fontColor=default;labelBackgroundColor=none;labelBorderColor=none;" vertex="1" parent="1">
          <mxGeometry x="325" y="440" width="180" height="70" as="geometry" />
        </mxCell>
        <mxCell id="tYkyg7E3x5yhrrcK7RUM-23" value="&lt;pre style=&quot;font-family: &amp;quot;jetbrains mono&amp;quot;, monospace;&quot;&gt;&lt;pre style=&quot;font-family: &amp;quot;jetbrains mono&amp;quot; , monospace&quot;&gt;&lt;span style=&quot;&quot;&gt;minimal_operating_system_id&lt;/span&gt;&lt;/pre&gt;&lt;/pre&gt;" style="ellipse;whiteSpace=wrap;html=1;align=center;fontStyle=0;rounded=1;shadow=1;sketch=1;fontColor=default;labelBackgroundColor=none;labelBorderColor=none;" vertex="1" parent="1">
          <mxGeometry x="285" y="510" width="170" height="70" as="geometry" />
        </mxCell>
        <mxCell id="tYkyg7E3x5yhrrcK7RUM-24" value="&lt;pre style=&quot;font-family: &amp;quot;jetbrains mono&amp;quot;, monospace;&quot;&gt;&lt;pre style=&quot;font-family: &amp;quot;jetbrains mono&amp;quot; , monospace&quot;&gt;&lt;span style=&quot;&quot;&gt;recommended_operating_system_id&lt;/span&gt;&lt;/pre&gt;&lt;/pre&gt;" style="ellipse;whiteSpace=wrap;html=1;align=center;fontStyle=0;rounded=1;shadow=1;sketch=1;fontColor=default;labelBackgroundColor=none;labelBorderColor=none;" vertex="1" parent="1">
          <mxGeometry x="155" y="570" width="220" height="100" as="geometry" />
        </mxCell>
        <mxCell id="tYkyg7E3x5yhrrcK7RUM-28" value="" style="endArrow=classic;html=1;rounded=0;labelBackgroundColor=none;labelBorderColor=none;exitX=0.5;exitY=0;exitDx=0;exitDy=0;entryX=1;entryY=1;entryDx=0;entryDy=0;" edge="1" parent="1" source="tYkyg7E3x5yhrrcK7RUM-10" target="tYkyg7E3x5yhrrcK7RUM-11">
          <mxGeometry width="50" height="50" relative="1" as="geometry">
            <mxPoint x="165" y="360" as="sourcePoint" />
            <mxPoint x="295" y="360" as="targetPoint" />
          </mxGeometry>
        </mxCell>
        <mxCell id="tYkyg7E3x5yhrrcK7RUM-29" value="" style="endArrow=classic;html=1;rounded=0;labelBackgroundColor=none;labelBorderColor=none;exitX=0.5;exitY=0;exitDx=0;exitDy=0;entryX=1;entryY=1;entryDx=0;entryDy=0;" edge="1" parent="1" source="tYkyg7E3x5yhrrcK7RUM-10" target="tYkyg7E3x5yhrrcK7RUM-12">
          <mxGeometry width="50" height="50" relative="1" as="geometry">
            <mxPoint x="370" y="230" as="sourcePoint" />
            <mxPoint x="500" y="230" as="targetPoint" />
          </mxGeometry>
        </mxCell>
        <mxCell id="tYkyg7E3x5yhrrcK7RUM-30" value="" style="endArrow=classic;html=1;rounded=0;labelBackgroundColor=none;labelBorderColor=none;exitX=0.5;exitY=0;exitDx=0;exitDy=0;entryX=1;entryY=0.5;entryDx=0;entryDy=0;" edge="1" parent="1" source="tYkyg7E3x5yhrrcK7RUM-10" target="tYkyg7E3x5yhrrcK7RUM-13">
          <mxGeometry width="50" height="50" relative="1" as="geometry">
            <mxPoint x="210" y="419.16999999999996" as="sourcePoint" />
            <mxPoint x="340" y="419.16999999999996" as="targetPoint" />
          </mxGeometry>
        </mxCell>
        <mxCell id="tYkyg7E3x5yhrrcK7RUM-31" value="" style="endArrow=classic;html=1;rounded=0;labelBackgroundColor=none;labelBorderColor=none;exitX=0.5;exitY=0;exitDx=0;exitDy=0;entryX=0;entryY=1;entryDx=0;entryDy=0;" edge="1" parent="1" source="tYkyg7E3x5yhrrcK7RUM-10" target="tYkyg7E3x5yhrrcK7RUM-18">
          <mxGeometry width="50" height="50" relative="1" as="geometry">
            <mxPoint x="370" y="230" as="sourcePoint" />
            <mxPoint x="500" y="230" as="targetPoint" />
          </mxGeometry>
        </mxCell>
        <mxCell id="tYkyg7E3x5yhrrcK7RUM-32" value="" style="endArrow=classic;html=1;rounded=0;labelBackgroundColor=none;labelBorderColor=none;exitX=0.5;exitY=0;exitDx=0;exitDy=0;entryX=0;entryY=0.5;entryDx=0;entryDy=0;" edge="1" parent="1" source="tYkyg7E3x5yhrrcK7RUM-10" target="tYkyg7E3x5yhrrcK7RUM-19">
          <mxGeometry width="50" height="50" relative="1" as="geometry">
            <mxPoint x="370" y="230" as="sourcePoint" />
            <mxPoint x="500" y="230" as="targetPoint" />
          </mxGeometry>
        </mxCell>
        <mxCell id="tYkyg7E3x5yhrrcK7RUM-33" value="" style="endArrow=classic;html=1;rounded=0;labelBackgroundColor=none;labelBorderColor=none;exitX=0.5;exitY=0;exitDx=0;exitDy=0;entryX=0;entryY=0.5;entryDx=0;entryDy=0;" edge="1" parent="1" source="tYkyg7E3x5yhrrcK7RUM-10" target="tYkyg7E3x5yhrrcK7RUM-20">
          <mxGeometry width="50" height="50" relative="1" as="geometry">
            <mxPoint x="370" y="230" as="sourcePoint" />
            <mxPoint x="500" y="230" as="targetPoint" />
          </mxGeometry>
        </mxCell>
        <mxCell id="tYkyg7E3x5yhrrcK7RUM-34" value="" style="endArrow=classic;html=1;rounded=0;labelBackgroundColor=none;labelBorderColor=none;exitX=0.5;exitY=1;exitDx=0;exitDy=0;entryX=0;entryY=0.5;entryDx=0;entryDy=0;" edge="1" parent="1" source="tYkyg7E3x5yhrrcK7RUM-10" target="tYkyg7E3x5yhrrcK7RUM-22">
          <mxGeometry width="50" height="50" relative="1" as="geometry">
            <mxPoint x="370" y="230" as="sourcePoint" />
            <mxPoint x="500" y="230" as="targetPoint" />
          </mxGeometry>
        </mxCell>
        <mxCell id="tYkyg7E3x5yhrrcK7RUM-35" value="" style="endArrow=classic;html=1;rounded=0;labelBackgroundColor=none;labelBorderColor=none;exitX=0.5;exitY=1;exitDx=0;exitDy=0;entryX=0;entryY=0;entryDx=0;entryDy=0;" edge="1" parent="1" source="tYkyg7E3x5yhrrcK7RUM-10" target="tYkyg7E3x5yhrrcK7RUM-23">
          <mxGeometry width="50" height="50" relative="1" as="geometry">
            <mxPoint x="370" y="230" as="sourcePoint" />
            <mxPoint x="500" y="230" as="targetPoint" />
          </mxGeometry>
        </mxCell>
        <mxCell id="tYkyg7E3x5yhrrcK7RUM-36" value="" style="endArrow=classic;html=1;rounded=0;labelBackgroundColor=none;labelBorderColor=none;exitX=0.5;exitY=1;exitDx=0;exitDy=0;entryX=0.5;entryY=0;entryDx=0;entryDy=0;" edge="1" parent="1" source="tYkyg7E3x5yhrrcK7RUM-10" target="tYkyg7E3x5yhrrcK7RUM-24">
          <mxGeometry width="50" height="50" relative="1" as="geometry">
            <mxPoint x="370" y="230" as="sourcePoint" />
            <mxPoint x="500" y="230" as="targetPoint" />
          </mxGeometry>
        </mxCell>
        <mxCell id="tYkyg7E3x5yhrrcK7RUM-37" value="" style="endArrow=classic;html=1;rounded=0;labelBackgroundColor=none;labelBorderColor=none;exitX=0.5;exitY=1;exitDx=0;exitDy=0;entryX=1;entryY=0.5;entryDx=0;entryDy=0;" edge="1" parent="1" source="tYkyg7E3x5yhrrcK7RUM-10" target="tYkyg7E3x5yhrrcK7RUM-16">
          <mxGeometry width="50" height="50" relative="1" as="geometry">
            <mxPoint x="370" y="230" as="sourcePoint" />
            <mxPoint x="500" y="230" as="targetPoint" />
          </mxGeometry>
        </mxCell>
        <mxCell id="tYkyg7E3x5yhrrcK7RUM-38" value="" style="endArrow=classic;html=1;rounded=0;labelBackgroundColor=none;labelBorderColor=none;exitX=0.5;exitY=1;exitDx=0;exitDy=0;entryX=1;entryY=0.5;entryDx=0;entryDy=0;" edge="1" parent="1" source="tYkyg7E3x5yhrrcK7RUM-10" target="tYkyg7E3x5yhrrcK7RUM-15">
          <mxGeometry width="50" height="50" relative="1" as="geometry">
            <mxPoint x="370" y="230" as="sourcePoint" />
            <mxPoint x="500" y="230" as="targetPoint" />
          </mxGeometry>
        </mxCell>
        <mxCell id="tYkyg7E3x5yhrrcK7RUM-39" value="" style="endArrow=classic;html=1;rounded=0;labelBackgroundColor=none;labelBorderColor=none;exitX=0;exitY=0.5;exitDx=0;exitDy=0;entryX=1;entryY=0.5;entryDx=0;entryDy=0;" edge="1" parent="1" source="tYkyg7E3x5yhrrcK7RUM-10" target="tYkyg7E3x5yhrrcK7RUM-14">
          <mxGeometry width="50" height="50" relative="1" as="geometry">
            <mxPoint x="370" y="230" as="sourcePoint" />
            <mxPoint x="500" y="230" as="targetPoint" />
          </mxGeometry>
        </mxCell>
        <mxCell id="tYkyg7E3x5yhrrcK7RUM-40" value="Operating Systems" style="whiteSpace=wrap;html=1;align=center;rounded=1;shadow=1;sketch=1;" vertex="1" parent="1">
          <mxGeometry x="10" y="120" width="100" height="40" as="geometry" />
        </mxCell>
        <mxCell id="tYkyg7E3x5yhrrcK7RUM-41" value="Graphics Cards" style="whiteSpace=wrap;html=1;align=center;rounded=1;shadow=1;sketch=1;" vertex="1" parent="1">
          <mxGeometry x="170" y="120" width="100" height="40" as="geometry" />
        </mxCell>
        <mxCell id="tYkyg7E3x5yhrrcK7RUM-42" value="Processors" style="whiteSpace=wrap;html=1;align=center;rounded=1;shadow=1;sketch=1;" vertex="1" parent="1">
          <mxGeometry x="355" y="120" width="100" height="40" as="geometry" />
        </mxCell>
        <mxCell id="tYkyg7E3x5yhrrcK7RUM-43" value="" style="edgeStyle=entityRelationEdgeStyle;fontSize=12;html=1;endArrow=ERoneToMany;rounded=0;labelBackgroundColor=none;labelBorderColor=none;" edge="1" parent="1" source="tYkyg7E3x5yhrrcK7RUM-10" target="tYkyg7E3x5yhrrcK7RUM-40">
          <mxGeometry width="100" height="100" relative="1" as="geometry">
            <mxPoint x="240" y="430" as="sourcePoint" />
            <mxPoint x="480" y="40" as="targetPoint" />
          </mxGeometry>
        </mxCell>
        <mxCell id="tYkyg7E3x5yhrrcK7RUM-45" value="" style="edgeStyle=entityRelationEdgeStyle;fontSize=12;html=1;endArrow=ERoneToMany;rounded=0;labelBackgroundColor=none;labelBorderColor=none;fontColor=default;" edge="1" parent="1" source="tYkyg7E3x5yhrrcK7RUM-10" target="tYkyg7E3x5yhrrcK7RUM-41">
          <mxGeometry width="100" height="100" relative="1" as="geometry">
            <mxPoint x="230" y="550" as="sourcePoint" />
            <mxPoint x="330" y="450" as="targetPoint" />
          </mxGeometry>
        </mxCell>
        <mxCell id="tYkyg7E3x5yhrrcK7RUM-47" value="" style="edgeStyle=entityRelationEdgeStyle;fontSize=12;html=1;endArrow=ERoneToMany;rounded=0;labelBackgroundColor=none;labelBorderColor=none;fontColor=default;exitX=1;exitY=0.5;exitDx=0;exitDy=0;entryX=0;entryY=0.5;entryDx=0;entryDy=0;" edge="1" parent="1" source="tYkyg7E3x5yhrrcK7RUM-10" target="tYkyg7E3x5yhrrcK7RUM-42">
          <mxGeometry width="100" height="100" relative="1" as="geometry">
            <mxPoint x="430" y="400" as="sourcePoint" />
            <mxPoint x="530" y="300" as="targetPoint" />
          </mxGeometry>
        </mxCell>
        <mxCell id="tYkyg7E3x5yhrrcK7RUM-48" value="M" style="text;html=1;strokeColor=none;fillColor=none;align=center;verticalAlign=middle;whiteSpace=wrap;rounded=0;shadow=1;sketch=1;" vertex="1" parent="1">
          <mxGeometry x="95" y="110" width="60" height="30" as="geometry" />
        </mxCell>
        <mxCell id="tYkyg7E3x5yhrrcK7RUM-49" value="M" style="text;html=1;strokeColor=none;fillColor=none;align=center;verticalAlign=middle;whiteSpace=wrap;rounded=0;shadow=1;sketch=1;" vertex="1" parent="1">
          <mxGeometry x="265" y="110" width="60" height="30" as="geometry" />
        </mxCell>
        <mxCell id="tYkyg7E3x5yhrrcK7RUM-50" value="M" style="text;html=1;strokeColor=none;fillColor=none;align=center;verticalAlign=middle;whiteSpace=wrap;rounded=0;shadow=1;sketch=1;" vertex="1" parent="1">
          <mxGeometry x="310" y="110" width="60" height="30" as="geometry" />
        </mxCell>
        <mxCell id="tYkyg7E3x5yhrrcK7RUM-52" value="1" style="text;html=1;strokeColor=none;fillColor=none;align=center;verticalAlign=middle;whiteSpace=wrap;rounded=0;shadow=1;sketch=1;" vertex="1" parent="1">
          <mxGeometry x="130" y="420" width="60" height="30" as="geometry" />
        </mxCell>
        <mxCell id="tYkyg7E3x5yhrrcK7RUM-53" value="1" style="text;html=1;strokeColor=none;fillColor=none;align=center;verticalAlign=middle;whiteSpace=wrap;rounded=0;shadow=1;sketch=1;" vertex="1" parent="1">
          <mxGeometry x="265" y="420" width="60" height="30" as="geometry" />
        </mxCell>
      </root>
    </mxGraphModel>
  </diagram>
</mxfile>
